<svg xmlns="http://www.w3.org/2000/svg" width="1024" height="1024"><path fill="#00101C" d="M380.718 433.263c4.944-.276 9.487.041 14.342 1.015.275 5.144.53 10.2-.198 15.318-2.557-.083-5.12-.027-7.678-.008l-2.048 10.512c2.088.328 4.324.258 6.005 1.652 1.851 6.271.362 21.896.319 29.252-3.044-.153-6.041-.279-9.09-.152 1.232 11.629.329 24.139.295 35.864-.031 10.823.615 21.915.119 32.696-.056 1.204-.115 2.42-.853 3.413-9.824.82-20.002.225-29.873.276-12.008.063-24.12.703-36.114.192-1.838-6.325-4.726-12.306-6.186-18.734-12.491 1.119-27.306.018-40.121.216a870 870 0 0 1-7.838 18.205c-10.804.609-21.567.378-32.376.17 7.751-22.829 16.634-45.079 25.073-67.646 6.883-17.984 13.26-36.159 20.166-54.139 7.39-.893 24.069-1.233 31.27-.117 4.425 8.374 7.273 18.325 10.681 27.193a3883 3883 0 0 1 22.269 59.842c4.11 11.258 7.77 22.901 12.619 33.858.075-6.926-.382-13.851-.468-20.779l-.466-50.94q-5.227.28-10.462.194a262 262 0 0 1-.831-30.316l11.475-.15c2.347-6.319 3.933-12.884 8.486-18.089 5.455-6.237 13.532-8.41 21.483-8.798m-102.194 83.694 11.351.06 11.12.061c-2.129-8.395-7.229-24.069-11.448-31.299-3.974 10.282-7.197 20.839-11.023 31.178"/><path fill="#00101C" d="M530.62 459.625c.21-.033.418-.077.629-.1 13.103-1.431 23.412.916 34.018 8.738l.309-7.764q15.712-.063 31.424.04c.785 14.711-.35 29.55-.299 44.292.066 19.475 1.283 39.215.25 58.649-5.892.349-27.488.986-32.371-.34-.842-1.57-.659-3.517-.684-5.264.121-1.011.275-1.14-.195-2.09-4.467 3.321-9.483 6.126-14.951 7.365-11.307 2.561-24.689-.083-34.42-6.27-12.517-7.957-20.935-22.807-23.932-37.089-2.819-13.432 1.47-27.892 8.98-39.107 7.407-11.063 18.147-18.462 31.242-21.06m16.613 71.83a20.685 20.685 0 1 0-7.055-40.754c-11.038 2.161-18.326 12.746-16.407 23.828 1.918 11.082 12.341 18.601 23.462 16.926"/><path fill="#00101C" d="M650.221 458.38c29.107-1.897 54.285 20.061 56.365 49.155 2.079 29.095-19.72 54.41-48.801 56.672-29.34 2.282-54.93-19.754-57.029-49.108-2.098-29.353 20.099-54.805 49.465-56.719m5.543 73.006c11.117-1.272 19.099-11.314 17.829-22.432-1.271-11.117-11.313-19.1-22.431-17.83s-19.102 11.314-17.831 22.432 11.315 19.101 22.433 17.83"/><path fill="#00101C" d="M213.808 522.696c3.261-.381 6.671-.152 9.958-.099l.216 62.066c13.776-.587 27.679-.183 41.469-.198q31.706-.154 63.411.171c1.836 12.278-.406 25.41.612 37.841-4.887.529-10.001.235-14.921.227l-26.178-.066-47.349-.043c-10.492-.008-22.313.92-32.575-1.369-6.929-1.545-14.115-5.063-19.719-9.401-10.767-8.332-17.399-21.954-18.954-35.342a47.9 47.9 0 0 1 9.864-35.521c8.646-10.851 20.541-16.697 34.166-18.266"/><path fill="#00101C" d="m695.969 391.426 61.67.121c13.009-.014 27.541-1.631 40.248 1.305 8.683 2.007 16.842 6.633 23.382 12.641 11.243 10.328 16.795 23.062 17.311 38.293.536 15.82-5.792 27.889-16.234 39.191-5.225 5.947-17.452 10.632-25.096 12.101-3.433.66-9.914 2.409-12.928.366-1.421-3.832-1.377-58.398-.455-63.958q-24.176.151-48.35-.036c-13.118-.047-26.304.169-39.407-.46-1.012-12.149-1.257-27.475-.141-39.564"/><path fill="#00101C" d="M396.528 460.592c6.613.121 28.519-1.324 32.841.579 3.244 1.428 15.956 38.502 18.284 44.576 2.339-7.42 5.735-14.684 8.509-21.963 2.65-6.953 4.767-15.772 8.658-22.087 4.338-2.23 28.084-1.204 34.306-.859-7.364 20.249-14.878 40.921-23.765 60.544-1.749 5.209-3.985 10.335-5.911 15.493a1713 1713 0 0 0-14.953 41.109c-11.594 1.131-23.835.557-35.447-.119 4.145-9.689 7.654-19.789 11.365-29.659-2.019-7.059-5.327-14.016-7.979-20.887l-19.448-50.729c-2.047-5.356-4.676-10.556-6.46-15.998"/><path fill="#00101C" d="M740.238 457.683c9.612-.926 19.104.66 28.25 3.565 2.057 9.855 2.915 19.96 4.436 29.906a33 33 0 0 0-1.761-.777c-4.606-1.865-18.151-5.703-22.735-3.177-1.236.681-1.333.973-1.799 2.222.695 4.418 12.926 13.427 16.578 17.241 6.932 7.239 12.516 15.872 12.093 26.308-.316 7.798-4.2 16.059-9.878 21.391-8.197 7.697-19.108 10.354-30.047 10.083-5.613.102-16.94-1.325-21.341-5.111-2.649-4.982-3.248-25.791-3.605-32.484 5.134 2.803 10.15 5.765 15.954 6.931 4.395.883 10.3 1.368 14.13-1.226.747-1.331 1.05-1.932.353-3.458-1.362-2.978-4.448-5.224-6.859-7.33-9.689-8.463-22.19-17.85-24.476-31.385-1.184-7.009.942-15.095 5.269-20.743 6.409-8.368 15.578-10.593 25.438-11.956"/></svg>